<svg width="49" height="48" viewBox="0 0 49 48" fill="none" xmlns="http://www.w3.org/2000/svg">
<path d="M21.3669 48C20.9103 47.8755 20.4537 47.7371 19.9901 47.6402C10.7611 45.7515 4.37541 40.4244 1.35902 31.5205C-1.40832 23.3638 0.0998657 15.7052 5.43391 8.93902C9.28051 4.06851 14.4001 1.19047 20.5436 0.284171C27.4758 -0.732826 33.73 0.982924 39.1747 5.38299C43.9829 9.2711 46.861 14.3353 47.8088 20.465C47.9126 21.143 47.9887 21.821 48.0786 22.499C48.0786 23.4675 48.0786 24.4361 48.0786 25.4047C48.0509 25.5569 48.0233 25.7091 47.9956 25.8613C47.7465 27.3211 47.6151 28.8085 47.2277 30.2268C44.7578 39.3313 37.4451 45.9868 28.1676 47.6402C27.3097 47.7924 26.4449 47.8824 25.5801 48C24.1757 48 22.7713 48 21.3669 48ZM17.707 2.47729C17.7347 2.53263 17.7624 2.58798 17.797 2.64333C19.5473 5.26538 19.9832 8.1019 19.2084 11.146C18.6687 13.2699 17.7832 15.214 16.185 16.7568C14.2963 18.5832 11.9579 18.7907 9.79246 17.3102C9.34277 17.0058 8.92078 16.6461 8.53336 16.2655C7.27422 15.0272 5.70372 14.363 4.08482 13.7819C1.59422 17.4417 0.736366 26.7953 2.54897 30.3375C3.1647 30.1092 3.75966 29.8324 4.38923 29.6664C5.03264 29.4934 5.69683 29.362 6.36099 29.2997C8.86543 29.0576 10.9963 29.784 12.546 31.8457C12.9957 32.4406 13.4038 33.0771 13.7705 33.7275C15.002 35.8791 16.2058 38.0514 17.4165 40.2099C18.4335 42.0156 19.3606 43.8421 19.4298 46.0144C19.9071 46.0975 20.3706 46.1736 20.9864 46.2773C20.8619 45.4125 20.8065 44.6308 20.6266 43.8905C20.1285 41.8496 19.0838 40.0508 18.0115 38.2728C17.3196 37.1244 16.6762 35.9413 16.019 34.7721C15.8529 34.4746 15.8322 34.1287 16.0951 33.9142C16.2888 33.7551 16.607 33.6513 16.8423 33.6859C17.0429 33.7136 17.2574 33.9488 17.375 34.1495C18.1844 35.5193 18.9662 36.9099 19.7687 38.2797C20.7027 39.8709 21.5744 41.4967 22.0172 43.3024C22.2593 44.3056 22.3562 45.3503 22.5222 46.4019C24.3348 46.7409 28.8318 46.222 30.1186 45.5993C30.1186 44.7622 30.0494 43.9458 30.1324 43.1502C30.2777 41.6974 30.9419 40.4106 31.6129 39.1376C32.2771 37.8715 33.0451 36.647 33.0935 35.1388C33.1073 34.7375 33.4255 34.5092 33.8406 34.5092C34.2281 34.5092 34.5394 34.8136 34.5602 35.2287C34.574 35.4778 34.5532 35.7269 34.5117 35.9759C34.318 37.3181 33.64 38.4665 33.052 39.6565C32.6023 40.5628 32.1733 41.4829 31.8205 42.4307C31.4953 43.3024 31.4469 44.2226 31.6752 45.1773C32.1595 44.9836 32.6023 44.8037 33.0727 44.6238C32.9205 43.2748 33.4463 42.1263 34.0344 40.9986C34.3319 40.4313 34.6363 39.8709 34.9268 39.3036C35.6532 37.8992 36.1237 36.4325 36.0822 34.8205C36.0683 34.2809 36.1652 33.7274 36.2621 33.1947C36.774 30.4689 38.7319 28.9469 41.4232 29.1821C42.7307 29.2997 43.9483 29.7217 45.1175 30.3029C45.2628 30.379 45.415 30.4412 45.5672 30.5173C47.9195 23.0663 46.176 13.7473 39.1954 7.37547C32.4016 1.15588 23.5531 0.526313 17.707 2.47729ZM4.77666 12.3844C4.90811 12.4535 4.96348 12.4881 5.01883 12.5089C6.92829 13.1869 8.6302 14.1762 10.0761 15.6291C10.7126 16.2655 11.5082 16.6945 12.4353 16.7706C13.6252 16.8674 14.5384 16.2932 15.3271 15.4838C16.4479 14.3422 17.1328 12.9447 17.5894 11.4365C18.4612 8.57235 18.2052 5.86036 16.4548 3.349C16.2404 3.04459 16.0674 2.96157 15.7008 3.11377C11.9925 4.62889 8.88618 6.94654 6.4025 10.0875C5.83519 10.8277 5.33013 11.6095 4.77666 12.3844ZM17.9146 45.6132C17.887 45.3779 17.88 45.2257 17.8523 45.0735C17.5895 43.7106 16.9876 42.4722 16.3165 41.2754C15.0504 39.0061 13.7774 36.73 12.4906 34.4677C12.1516 33.8727 11.785 33.2847 11.3699 32.745C10.5466 31.6589 9.46039 30.9809 8.07672 30.8148C6.47859 30.6211 4.97729 30.9324 3.52444 31.5758C3.10934 31.7557 3.02635 31.9425 3.20622 32.3715C5.26789 37.2973 8.62328 41.0747 13.2724 43.6968C14.7114 44.5062 16.2335 45.1427 17.9146 45.6132ZM34.5048 43.759C34.5602 43.7936 34.6086 43.8282 34.6639 43.8628C39.5483 41.1647 43.0282 37.2212 45.1106 31.9979C43.81 31.2645 42.4955 30.7111 41.0288 30.6695C39.3892 30.6211 38.3099 31.396 37.8948 32.9803C37.708 33.679 37.625 34.4262 37.6111 35.1526C37.5766 36.4049 37.369 37.6086 36.8571 38.7432C36.4005 39.7464 35.8608 40.715 35.3903 41.7181C35.0583 42.3754 34.7954 43.0741 34.5048 43.759Z" fill="white"/>
<path d="M34.5879 24.7682C34.3181 24.7682 34.1036 24.7682 33.8407 24.7682C33.8407 25.2317 33.8476 25.6814 33.8407 26.1311C33.8338 26.7192 33.5639 26.9959 32.9828 27.0028C32.0627 27.0098 31.1425 27.0098 30.2155 27.0028C29.6136 26.9959 29.3507 26.7192 29.3368 26.0965C29.3299 25.6607 29.3368 25.2318 29.3368 24.7751C29.0808 24.7751 28.8664 24.7751 28.5897 24.7751C28.5897 24.9343 28.5897 25.1003 28.5897 25.2663C28.5897 27.7362 28.5897 30.206 28.5897 32.669C28.5897 34.274 27.8701 35.0904 26.2236 35.291C26.0783 36.1627 25.9261 37.0483 25.7739 37.9338C25.7116 38.3213 25.6563 38.7018 25.5802 39.0892C25.4971 39.5112 25.2412 39.7464 24.8053 39.7534C24.3349 39.7603 23.8714 39.7672 23.4009 39.7534C22.9097 39.7395 22.6745 39.532 22.5846 39.0269C22.3908 37.92 22.211 36.8131 22.0242 35.7061C22.0034 35.5678 21.9688 35.4294 21.948 35.3049C21.6644 35.2495 21.4015 35.2218 21.1525 35.1457C20.2046 34.8552 19.5889 33.9904 19.5889 32.9388C19.582 30.3928 19.5889 27.8469 19.5889 25.3009C19.5889 25.1349 19.5889 24.9619 19.5889 24.7751C19.3329 24.7751 19.1184 24.7751 18.8417 24.7751C18.8417 25.2179 18.8486 25.6607 18.8417 26.1104C18.8348 26.7261 18.565 26.9959 17.9562 27.0028C17.036 27.0098 16.1159 27.0098 15.1888 27.0028C14.6285 26.9959 14.3586 26.7261 14.3448 26.1726C14.3379 25.9374 14.3448 25.7022 14.3448 25.467C14.3448 25.2525 14.3448 25.0311 14.3448 24.789C14.0888 24.789 13.8674 24.789 13.5976 24.789C13.5976 25.2456 13.6045 25.6953 13.5976 26.145C13.5838 26.7261 13.3071 27.0028 12.7259 27.0098C11.8058 27.0167 10.8856 27.0167 9.95857 27.0098C9.37051 27.0028 9.10762 26.733 9.09378 26.145C9.08686 25.7091 9.09378 25.2733 9.09378 24.7613C8.87931 24.7613 8.6856 24.7613 8.49189 24.7613C7.86924 24.7544 7.59939 24.4915 7.59247 23.8827C7.58555 23.2254 7.58555 22.5682 7.59247 21.9179C7.59939 21.3506 7.75854 21.143 8.31893 21.0046C11.0378 20.3197 13.7637 19.6417 16.4895 18.9568C17.5134 18.7008 18.5442 18.4449 19.5958 18.175C19.5958 16.9228 19.582 15.6914 19.5958 14.4599C19.6235 12.4259 20.3776 10.6894 21.8235 9.26421C23.1864 7.92897 24.9091 7.9013 26.2997 9.20886C27.7526 10.5718 28.5136 12.2875 28.5828 14.28C28.6243 15.4008 28.5897 16.5285 28.5897 17.6562C28.5897 17.8291 28.5897 17.9952 28.5897 18.175C31.53 18.9084 34.4356 19.6348 37.3344 20.3612C38.1785 20.5757 39.0295 20.7833 39.8735 21.0046C40.4339 21.1499 40.5861 21.3506 40.5861 21.9317C40.593 22.5543 40.5861 23.1839 40.5861 23.8066C40.5791 24.5122 40.337 24.7613 39.6313 24.7682C39.4722 24.7682 39.32 24.7682 39.0848 24.7682C39.0848 25.211 39.0848 25.6399 39.0848 26.0758C39.0779 26.7607 38.8288 27.0167 38.1577 27.0236C37.2653 27.0305 36.3797 27.0305 35.4872 27.0236C34.8508 27.0167 34.5879 26.7469 34.5809 26.1035C34.5809 25.6538 34.5879 25.2387 34.5879 24.7682ZM26.3343 33.7344C26.9431 33.6099 27.0815 33.4162 27.0815 32.7658C27.0815 26.6431 27.0884 20.5204 27.0815 14.3907C27.0815 12.8825 26.5072 11.5888 25.4902 10.4957C24.5632 9.49252 23.6085 9.49252 22.6745 10.4957C21.6644 11.5888 21.0832 12.8825 21.0832 14.3907C21.0763 20.5134 21.0832 26.6362 21.0832 32.7658C21.0832 32.8904 21.0694 33.0218 21.0971 33.1394C21.187 33.4992 21.3946 33.7344 21.8304 33.7275C21.8304 33.0356 21.8304 32.3646 21.8304 31.6935C21.8304 31.1054 22.1141 30.7595 22.5846 30.7595C23.0481 30.7595 23.3594 31.1123 23.3248 31.7004C23.2003 33.8105 23.5324 35.8722 23.9059 37.9269C23.9267 38.0445 23.989 38.1552 24.0305 38.2728C24.072 38.2659 24.1135 38.2659 24.155 38.259C24.1896 38.1345 24.238 38.0099 24.2588 37.8785C24.6462 35.8168 24.9575 33.7552 24.833 31.6451C24.8053 31.0985 25.1166 30.7526 25.5732 30.7526C26.0229 30.7457 26.3204 31.0847 26.3274 31.6312C26.3343 32.3231 26.3343 33.0149 26.3343 33.7344ZM9.10066 23.2185C12.6152 23.2185 16.0813 23.2185 19.5543 23.2185C19.5543 22.0424 19.5543 20.9009 19.5543 19.7178C16.0467 20.5965 12.5806 21.4613 9.10066 22.333C9.10066 22.6374 9.10066 22.9141 9.10066 23.2185ZM28.6173 19.7109C28.6173 20.9285 28.6173 22.077 28.6173 23.2185C32.118 23.2185 35.591 23.2185 39.0709 23.2185C39.0709 22.9072 39.0709 22.6305 39.0709 22.326C35.5841 21.4543 32.118 20.5895 28.6173 19.7109ZM10.602 25.467C11.1139 25.467 11.5913 25.467 12.0617 25.467C12.0617 25.2248 12.0617 25.0104 12.0617 24.7751C11.5705 24.7751 11.0932 24.7751 10.602 24.7751C10.602 25.0104 10.602 25.2248 10.602 25.467ZM15.8461 25.467C16.3718 25.467 16.8423 25.467 17.3059 25.467C17.3059 25.2179 17.3059 25.0034 17.3059 24.7821C16.8077 24.7821 16.3373 24.7821 15.8461 24.7821C15.8461 25.0173 15.8461 25.2318 15.8461 25.467ZM32.3048 25.4739C32.3048 25.2248 32.3048 25.0034 32.3048 24.7751C31.8067 24.7751 31.3293 24.7751 30.8727 24.7751C30.8727 25.0311 30.8727 25.2525 30.8727 25.4739C31.3708 25.4739 31.8275 25.4739 32.3048 25.4739ZM37.5627 24.7751C37.0646 24.7751 36.5942 24.7751 36.1168 24.7751C36.1168 25.0242 36.1168 25.2456 36.1168 25.467C36.6219 25.467 37.0923 25.467 37.5627 25.467C37.5627 25.2179 37.5627 25.0104 37.5627 24.7751Z" fill="white"/>
<path d="M37.3482 9.74847C39.2646 9.74847 40.5998 11.0906 40.586 12.7856C40.5722 14.4391 39.2024 15.802 37.542 15.7398C36.1652 15.6913 34.913 15.2209 33.8752 14.2869C32.8098 13.3322 32.8167 12.1215 33.896 11.1806C34.9406 10.2604 36.1929 9.83841 37.3482 9.74847ZM39.0847 12.7234C39.0778 11.9208 38.4275 11.2428 37.625 11.2567C36.5941 11.2705 35.674 11.6649 34.8784 12.3013C34.484 12.6196 34.484 12.8617 34.8784 13.18C35.6601 13.8165 36.5665 14.1901 37.5765 14.2316C38.4206 14.2731 39.0917 13.5605 39.0847 12.7234Z" fill="white"/>
<path d="M34.5809 16.5146C34.567 16.9228 34.2281 17.2549 33.8199 17.241C33.4186 17.2272 33.0796 16.8813 33.0865 16.4731C33.0934 16.0649 33.4394 15.7398 33.8545 15.7536C34.2765 15.7674 34.5947 16.0995 34.5809 16.5146Z" fill="white"/>
<path d="M15.8252 31.5136C15.8183 31.9218 15.4793 32.2538 15.0711 32.2469C14.656 32.24 14.3308 31.9079 14.3378 31.4928C14.3447 31.0777 14.6768 30.7526 15.0919 30.7595C15.5001 30.7664 15.8321 31.1123 15.8252 31.5136Z" fill="white"/>
<path d="M33.8268 7.48616C33.4255 7.47924 33.0796 7.13333 33.0865 6.73206C33.0934 6.31696 33.4255 5.99872 33.8406 5.99872C34.2626 6.00564 34.5809 6.32388 34.5739 6.7459C34.5739 7.15408 34.235 7.49308 33.8268 7.48616Z" fill="white"/>
<path d="M7.58549 19.4964C7.1773 19.5033 6.83833 19.1713 6.83141 18.7631C6.82449 18.3411 7.14273 18.0159 7.56475 18.009C7.97293 18.0021 8.31884 18.3341 8.32575 18.7354C8.33267 19.1367 7.98675 19.4895 7.58549 19.4964Z" fill="white"/>
<path d="M33.8337 33.001C33.4255 33.001 33.0865 32.662 33.0865 32.2608C33.0865 31.8526 33.4255 31.5205 33.8337 31.5205C34.2488 31.5205 34.5809 31.8526 34.574 32.2608C34.5809 32.669 34.2488 33.001 33.8337 33.001Z" fill="white"/>
<path d="M16.5863 8.57237C16.4756 10.5441 15.8668 12.5366 14.4486 14.2039C14.0819 14.6328 13.5423 14.9649 13.0303 15.214C12.5668 15.4423 12.1032 15.1656 11.9856 14.7366C11.8611 14.28 12.1032 13.9687 12.629 13.775C12.8781 13.685 13.134 13.5052 13.2932 13.2976C14.9051 11.1391 15.6247 8.80068 14.6284 6.15095C14.4486 5.67358 14.5938 5.24465 14.9882 5.08552C15.4171 4.91257 15.8115 5.10628 16.0259 5.61132C16.3926 6.49687 16.5725 7.42393 16.5863 8.57237Z" fill="white"/>
<path d="M11.3214 12.751C11.3145 13.1523 10.9617 13.4982 10.5674 13.4913C10.1592 13.4844 9.82705 13.1454 9.83397 12.7372C9.84089 12.3221 10.1661 12.0038 10.5812 12.0038C10.9963 12.0108 11.3283 12.3428 11.3214 12.751Z" fill="white"/>
<path d="M7.12887 32.2193C8.55405 32.1916 9.66097 32.7727 10.4012 33.9696C11.01 34.9451 11.5428 35.9759 12.1032 36.9791C12.6774 37.9961 13.2378 39.02 13.8189 40.037C14.1371 40.5974 14.1095 41.0056 13.7013 41.2685C13.2931 41.5314 12.8503 41.3792 12.5252 40.798C11.5843 39.1099 10.6642 37.4149 9.73018 35.7199C9.59181 35.4778 9.43268 35.2426 9.29432 35.0004C8.6855 33.9073 7.73076 33.596 6.55464 33.7967C6.3886 33.8243 6.21564 33.852 6.04269 33.852C5.62067 33.8589 5.2955 33.596 5.26091 33.2017C5.22632 32.7935 5.42695 32.4891 5.82822 32.3991C6.26407 32.3023 6.69993 32.2815 7.12887 32.2193Z" fill="white"/>
<path d="M39.0087 34.8689C39.154 34.267 39.2439 33.6444 39.4515 33.0702C39.6728 32.4544 40.1917 32.1639 40.8489 32.157C41.2571 32.157 41.5338 32.3507 41.6169 32.7658C41.6999 33.167 41.4923 33.5337 41.0703 33.6167C40.7659 33.6721 40.6967 33.845 40.669 34.0872C40.6345 34.4262 40.5999 34.7721 40.5791 35.1111C40.5514 35.6784 40.2955 35.9966 39.8389 36.0036C39.3684 36.0105 39.0848 35.6646 39.0778 35.0834C39.0778 35.0211 39.0778 34.9589 39.0778 34.8966C39.064 34.8828 39.0363 34.8759 39.0087 34.8689Z" fill="white"/>
<path d="M25.5801 16.8398C25.5801 17.6354 25.5801 18.431 25.5801 19.2266C25.5801 19.8908 25.3103 20.2505 24.8191 20.2436C24.3348 20.2367 24.0789 19.8839 24.0789 19.2059C24.0789 17.7876 24.0581 16.3624 24.0927 14.9442C24.1065 14.3838 23.9682 13.9064 23.6568 13.4567C23.5669 13.3322 23.4839 13.1938 23.4147 13.0555C23.2348 12.6749 23.3386 12.3429 23.6776 12.1146C24.0235 11.8863 24.404 11.9278 24.6392 12.2529C25.1512 12.9586 25.6355 13.685 25.587 14.6328C25.5525 15.3731 25.5801 16.1064 25.5801 16.8398Z" fill="white"/>
<path d="M25.5802 26.6223C25.5802 26.9821 25.5871 27.3349 25.5802 27.6947C25.5663 28.1789 25.2688 28.4833 24.8468 28.4972C24.4248 28.5041 24.0997 28.1928 24.0858 27.7223C24.072 26.989 24.072 26.2626 24.0858 25.5292C24.0927 25.0588 24.4179 24.7474 24.8399 24.7544C25.2619 24.7613 25.5525 25.0726 25.5802 25.55C25.5802 25.5638 25.5802 25.5776 25.5802 25.5984C25.5802 25.9443 25.5802 26.2833 25.5802 26.6223Z" fill="white"/>
<path d="M24.8399 21.7587C25.255 21.7656 25.5871 22.0977 25.5802 22.5059C25.5732 22.914 25.2343 23.2461 24.8261 23.2461C24.4179 23.2392 24.0858 22.9002 24.0858 22.492C24.0927 22.0769 24.4248 21.7518 24.8399 21.7587Z" fill="white"/>
</svg>
