<svg width="63" height="63" viewBox="0 0 63 63" fill="none" xmlns="http://www.w3.org/2000/svg">
<rect width="62" height="62" transform="translate(0.1875 0.666748)" fill="white"/>
<path d="M24.5489 44.5246C24.1578 44.5246 23.9384 44.5246 23.7286 44.5246C19.0357 44.5246 14.3427 44.5246 9.64982 44.5246C7.6372 44.5246 6.62613 43.5135 6.62613 41.52C6.62613 38.0575 6.62613 34.5855 6.62613 31.1231C6.62613 30.8846 6.62613 30.6461 6.62613 30.3695C6.44489 30.3314 6.29228 30.3028 6.13966 30.2741C4.97597 30.0357 4.07936 29.0437 4.06982 27.8514C4.05074 23.4828 4.0412 19.1046 4.06982 14.736C4.07936 13.3529 5.22397 12.2941 6.62613 12.2751C8.09505 12.256 9.56397 12.2751 10.947 12.2751C11.567 10.7012 12.1489 9.19415 12.7498 7.67753C13.2744 6.36122 14.0566 5.83661 15.4778 5.83661C22.4695 5.83661 29.4517 5.83661 36.4434 5.83661C37.8741 5.83661 38.6467 6.37076 39.1809 7.67753C39.6387 8.79353 40.0871 9.91907 40.5258 11.0446C40.6689 11.4166 40.7643 11.8077 40.8978 12.2751C41.2984 12.2751 41.7563 12.2751 42.2141 12.2751C43.1966 12.2751 44.1886 12.2655 45.1711 12.2751C46.7258 12.2846 47.8609 13.3052 47.8704 14.8409C47.9086 19.1523 47.8991 23.4637 47.8704 27.7751C47.8609 29.1963 46.9643 30.0548 45.3427 30.36C45.3427 31.4665 45.3427 32.5729 45.3427 33.7366C46.3061 33.7366 47.26 33.7461 48.2138 33.7366C50.2074 33.7175 52.2009 33.6794 54.1944 33.6698C56.5504 33.6603 58.2387 35.3772 58.172 37.7332C58.0766 41.1385 57.9431 44.5437 57.7904 47.9394C57.695 50.0665 56.2166 51.6308 54.2517 51.7929C52.2963 51.9551 50.5412 50.6578 50.1597 48.7025C50.0357 48.0825 50.0834 47.4338 50.0547 46.7089C49.8067 46.9188 49.5969 47.0905 49.3966 47.2717C46.7831 49.6658 44.1695 52.0695 41.5655 54.4637C39.7818 56.1043 37.8741 56.1615 35.976 54.6449C34.0397 53.0997 32.1034 51.564 30.1194 49.9901C28.9175 50.9821 27.7252 51.9646 26.5329 52.9471C24.6061 54.54 22.6889 56.1425 20.7526 57.7163C19.5221 58.7178 18.1486 58.9563 16.6797 58.3268C15.268 57.7068 14.4858 56.5812 14.3714 55.0455C14.276 53.7101 14.8006 52.6132 15.8307 51.7643C18.5778 49.4846 21.3154 47.2049 24.0529 44.9252C24.1864 44.8394 24.2914 44.744 24.5489 44.5246ZM18.1963 23.8738C17.748 23.8738 17.3664 23.8834 16.9849 23.8738C16.2123 23.8452 15.659 23.3015 15.659 22.5861C15.659 21.8708 16.2027 21.3366 16.9849 21.3175C17.6907 21.2985 18.3966 21.308 19.1024 21.308C24.3772 21.308 29.652 21.308 34.9363 21.3175C35.728 21.3175 36.2717 21.8517 36.2907 22.5671C36.3003 23.3015 35.7375 23.8548 34.9267 23.8738C34.5357 23.8834 34.1351 23.8738 33.744 23.8738C33.744 25.2092 33.744 26.4492 33.744 27.6988C37.6166 27.6988 41.451 27.6988 45.276 27.6988C45.276 23.4065 45.276 19.1618 45.276 14.8886C32.3895 14.8886 19.5317 14.8886 6.68336 14.8886C6.68336 19.2 6.68336 23.4541 6.68336 27.7083C10.556 27.7083 14.3714 27.7083 18.2344 27.7083C18.2344 26.6114 18.2344 25.5431 18.2344 24.4748C18.2249 24.3031 18.2058 24.1218 18.1963 23.8738ZM42.6624 41.9206C42.7197 41.8729 42.7769 41.8157 42.8246 41.768C42.6911 41.52 42.6243 41.1385 42.424 41.0335C39.7818 39.6314 39.715 35.7301 42.424 34.2517C42.5575 34.1849 42.7101 33.9941 42.7101 33.8606C42.7292 32.716 42.7197 31.5714 42.7197 30.3981C39.696 30.3981 36.7295 30.3981 33.6867 30.3981C33.6867 30.7511 33.6677 31.0754 33.6867 31.3901C33.7249 31.9911 33.4769 32.4203 33.019 32.7923C30.9874 34.4043 28.9652 36.0354 26.9335 37.6569C26.2277 38.2197 25.6935 38.2101 24.9781 37.6378C23.204 36.2166 21.4584 34.7477 19.6366 33.3932C18.6541 32.6588 18.0055 31.8671 18.2058 30.5794C18.2154 30.5317 18.1677 30.4745 18.139 30.3981C15.1821 30.3981 12.2347 30.3981 9.2492 30.3981C9.2492 34.2421 9.2492 38.0575 9.2492 41.9015C9.40182 41.9111 9.51628 41.9301 9.64028 41.9301C15.516 41.9301 21.4012 41.9301 27.2769 41.9206C27.5344 41.9206 27.8206 41.8061 28.059 41.6821C29.3658 40.9763 30.6631 40.9763 31.9794 41.6631C32.2655 41.8157 32.6184 41.9206 32.9332 41.9206C35.728 41.9397 38.5323 41.9301 41.327 41.9301C41.7849 41.9206 42.2237 41.9206 42.6624 41.9206ZM55.4249 42.7314H55.4154C55.4726 41.1385 55.5298 39.5455 55.5966 37.9621C55.6538 36.7412 55.1578 36.2261 53.9178 36.2452C50.856 36.2834 47.7941 36.3215 44.7323 36.3597C44.4366 36.3597 44.1218 36.3883 43.8357 36.4646C43.311 36.5981 42.9486 37.1705 42.9772 37.7141C43.0154 38.296 43.4541 38.8015 44.0169 38.8778C44.2935 38.916 44.5797 38.916 44.8563 38.916C45.7624 38.916 46.6686 38.8969 47.5747 38.8969C48.1566 38.8969 48.5954 39.1545 48.8052 39.6981C49.0151 40.2323 48.9101 40.7283 48.4904 41.1385C48.3283 41.2911 48.1661 41.4437 48.004 41.5868C45.2474 44.124 42.4812 46.6517 39.7246 49.1889C38.8661 49.9806 38.3701 49.9997 37.4544 49.2748C35.2797 47.5483 33.1049 45.8218 30.9301 44.0858C30.3101 43.5803 29.7569 43.5898 29.1369 44.0954C26.0369 46.6612 22.9369 49.2366 19.8369 51.8025C19.0166 52.4797 18.1867 53.1569 17.3855 53.8628C16.9181 54.2729 16.8418 54.8929 17.1089 55.408C17.3855 55.9231 17.9674 56.1997 18.5397 56.028C18.8163 55.9422 19.0834 55.7609 19.3123 55.5701C22.5458 52.9089 25.7794 50.2381 29.0034 47.5674C29.8427 46.8711 30.3292 46.8615 31.1877 47.5483C33.2861 49.208 35.3846 50.8772 37.4735 52.5465C38.5323 53.3858 38.9424 53.3763 39.9249 52.4701C43.4255 49.2557 46.9261 46.0412 50.4267 42.8172C50.9132 42.3689 51.4187 42.1114 52.0578 42.4166C52.6969 42.7218 52.8209 43.2846 52.7827 43.9332C52.716 45.2018 52.6683 46.4705 52.6397 47.7391C52.6206 48.5975 53.1452 49.1985 53.8892 49.2175C54.6141 49.2366 55.1483 48.6834 55.1864 47.844C55.2914 46.1557 55.3581 44.4388 55.4249 42.7314ZM20.8194 23.8929C20.8194 24.1695 20.8194 24.3794 20.8194 24.5988C20.8194 26.2871 20.8766 27.9849 20.8003 29.6637C20.7621 30.6175 21.0101 31.2471 21.8114 31.8194C23.2421 32.8495 24.5871 34.0037 25.9701 35.1101C27.6298 33.7843 29.2514 32.4966 30.8538 31.1803C31.016 31.0468 31.1114 30.7415 31.1114 30.5126C31.1304 28.5 31.1209 26.4874 31.1209 24.4748C31.1209 24.284 31.1018 24.0837 31.0923 23.8834C27.668 23.8929 24.2914 23.8929 20.8194 23.8929ZM13.7037 12.2369C21.9067 12.2369 30.0335 12.2369 38.2271 12.2369C37.7692 11.0828 37.3114 9.99538 36.9012 8.88892C36.7581 8.50738 36.5578 8.39292 36.1477 8.39292C33.6104 8.41199 31.0732 8.40245 28.536 8.40245C24.2818 8.40245 20.0372 8.40245 15.783 8.41199C15.5541 8.41199 15.2012 8.54553 15.1249 8.71722C14.6384 9.8523 14.1901 11.0255 13.7037 12.2369ZM35.6803 44.5437C36.7104 45.364 37.5975 46.0698 38.5132 46.8043C39.324 46.0603 40.0966 45.3449 40.9646 44.5437C39.1523 44.5437 37.5117 44.5437 35.6803 44.5437Z" fill="#1A326A"/>
</svg>
