<svg width="59" height="52" viewBox="0 0 59 52" fill="none" xmlns="http://www.w3.org/2000/svg">
<path d="M0.146973 8.15497C0.232371 7.79203 0.317767 7.42909 0.410282 7.07326C1.2358 3.83523 4.05397 1.25901 7.26354 0.803551C10.8147 0.298274 14.1381 1.807 15.8817 4.8173C16.9492 6.66049 18.5433 7.45755 20.5929 7.46467C22.0589 7.47178 23.5391 7.50736 24.9909 7.37215C26.5637 7.2227 27.7237 6.35449 28.5278 4.95964C30.3354 1.81412 33.7727 0.220006 37.3524 0.817798C40.7399 1.38001 43.5082 4.11276 44.2056 7.57141C45.0027 11.5353 42.7396 15.6131 38.9322 17.0792C35.1035 18.5523 30.7126 17.1005 28.6559 13.5707C27.5457 11.6634 25.9516 10.8308 23.8167 10.8664C22.372 10.8877 20.906 10.8308 19.4756 10.9874C17.9384 11.1582 16.7713 11.9979 15.9742 13.3714C14.1452 16.5383 10.6368 18.1466 7.09275 17.5061C3.56293 16.8656 0.851523 14.0617 0.246615 10.4323C0.232382 10.3469 0.182555 10.2615 0.146973 10.1832C0.146973 9.51424 0.146973 8.83105 0.146973 8.15497ZM14.985 9.13706C14.6719 8.79547 14.2591 8.38269 13.9033 7.92011C13.5403 7.44331 13.2272 6.92381 12.8999 6.41853C11.6687 4.51841 9.35581 3.6573 7.17814 4.29779C5.01471 4.93116 3.52735 6.93092 3.53446 9.19399C3.54158 11.4499 5.04317 13.4284 7.22084 14.0546C9.40562 14.6809 11.6758 13.7913 12.9283 11.8912C13.5759 10.9304 14.3161 10.0337 14.985 9.13706ZM29.4814 9.30785C29.8088 9.63522 30.2643 10.0124 30.6272 10.4607C31.0044 10.9233 31.2891 11.4642 31.6235 11.9623C32.8761 13.8553 35.196 14.6951 37.3737 14.0261C39.4802 13.3856 40.9534 11.4001 40.9605 9.19399C40.9676 6.95938 39.4944 4.95252 37.3666 4.30491C35.196 3.64307 32.8832 4.48994 31.6164 6.36871C30.9617 7.3508 30.2358 8.28307 29.4814 9.30785Z" fill="white"/>
<path d="M0.146772 42.0725C0.232171 41.7096 0.317566 41.3466 0.410081 40.9908C1.2356 37.7456 4.05377 35.1766 7.26334 34.7211C10.8145 34.2229 14.145 35.7317 15.8815 38.742C16.949 40.5923 18.5146 41.4035 20.5855 41.3893C22.0516 41.3822 23.5318 41.432 24.9836 41.2897C26.5563 41.1402 27.7235 40.272 28.5276 38.8772C30.3352 35.7316 33.7654 34.1375 37.3522 34.7282C40.7397 35.2904 43.5151 38.0161 44.2054 41.4818C45.0025 45.4529 42.7394 49.5235 38.9249 50.9967C35.0962 52.4698 30.7053 51.018 28.6486 47.4811C27.5384 45.5739 25.9372 44.7412 23.8022 44.7839C22.3006 44.8124 20.7848 44.7555 19.2903 44.9191C17.8812 45.0757 16.7924 45.887 16.0594 47.1466C14.1308 50.4487 10.6935 52.0855 7.09255 51.4308C3.5485 50.7903 0.901124 48.0362 0.232167 44.3C0.217934 44.2288 0.175231 44.1719 0.139648 44.1007C0.146765 43.4318 0.146772 42.7486 0.146772 42.0725ZM14.9136 43.0973C14.2376 42.1722 13.5046 41.1829 12.8 40.1795C11.5048 38.3506 9.1848 37.5606 7.05695 38.2509C4.92198 38.9412 3.49155 40.9766 3.54137 43.2396C3.59118 45.4529 5.12126 47.3886 7.29181 47.9864C9.44813 48.5842 11.7041 47.6875 12.9424 45.8016C13.5615 44.8551 14.2803 43.9655 14.9136 43.0973ZM29.588 43.0973C30.2285 43.9798 30.9473 44.8907 31.5877 45.8514C32.8403 47.7231 35.1033 48.5913 37.2668 47.9721C39.4231 47.353 40.9318 45.3888 40.9532 43.1614C40.9745 40.9196 39.5298 38.9128 37.4091 38.2438C35.267 37.5677 32.9541 38.3719 31.6731 40.2151C30.9828 41.2114 30.257 42.1793 29.588 43.0973Z" fill="white"/>
<path d="M13.7822 26.1029C13.832 22.3027 16.3798 18.9864 20.0661 17.9616C23.7027 16.951 27.6311 18.4669 29.5312 21.7405C30.6414 23.6477 32.2426 24.4661 34.3776 24.4305C35.7866 24.4092 37.21 24.4661 38.6048 24.3238C40.1349 24.1672 41.2806 23.3204 42.0563 21.9682C43.8995 18.7729 47.287 17.1859 50.9093 17.7766C54.3111 18.3245 57.0936 21.0075 57.848 24.459C58.8585 29.0848 55.4995 33.86 50.7812 34.5005C47.0949 35.0058 43.8782 33.4543 42.0136 30.2305C41.2593 28.9353 40.1491 28.0742 38.6973 27.9604C36.8684 27.8109 35.0109 27.8038 33.1749 27.9319C31.6021 28.0387 30.4421 28.9496 29.6379 30.3444C27.8232 33.4971 24.3859 35.084 20.8063 34.4863C17.433 33.9169 14.6931 31.234 13.9815 27.7824C13.8819 27.2274 13.8534 26.658 13.7822 26.1029ZM43.1523 26.1243C43.8284 27.0566 44.54 28.06 45.273 29.0492C46.5469 30.7501 48.2477 31.4759 50.3614 31.1201C52.66 30.7287 54.4676 28.7432 54.6313 26.4872C54.795 24.2171 53.2863 22.0465 51.0517 21.3064C48.8171 20.5663 46.4117 21.4558 45.1307 23.42C44.5044 24.3736 43.7857 25.2632 43.1523 26.1243ZM28.5989 26.1385C27.9442 25.2347 27.2183 24.2882 26.5422 23.3061C25.2612 21.4345 22.9484 20.609 20.7849 21.2779C18.6642 21.9398 17.2053 23.9466 17.2195 26.1741C17.2338 28.4016 18.7282 30.3729 20.8703 30.9991C23.048 31.6325 25.3324 30.7643 26.592 28.8784C27.2396 27.9248 27.9584 27.0139 28.5989 26.1385Z" fill="white"/>
<path d="M37.537 10.845C36.4268 10.845 35.3451 10.845 34.2207 10.845C34.2207 9.74908 34.2207 8.65313 34.2207 7.51448C35.3095 7.51448 36.4126 7.51448 37.537 7.51448C37.537 8.61755 37.537 9.72061 37.537 10.845Z" fill="white"/>
<path d="M34.2065 44.7483C34.2065 43.6239 34.2065 42.5351 34.2065 41.4249C35.3167 41.4249 36.3985 41.4249 37.53 41.4249C37.53 42.5137 37.53 43.6097 37.53 44.7483C36.4412 44.7483 35.3452 44.7483 34.2065 44.7483Z" fill="white"/>
<path d="M20.6567 24.459C21.7669 24.459 22.8486 24.459 23.9659 24.459C23.9659 25.5763 23.9659 26.6723 23.9659 27.8038C22.8629 27.8038 21.7812 27.8038 20.6567 27.8038C20.6567 26.7078 20.6567 25.6119 20.6567 24.459Z" fill="white"/>
</svg>
