<svg width="52" height="51" viewBox="0 0 52 51" fill="none" xmlns="http://www.w3.org/2000/svg">
<path d="M0.972656 26.6671C0.972656 17.8481 0.972656 9.02427 0.972656 0.205276C5.71208 0.205276 10.4563 0.214909 15.1957 0.20046C17.5173 0.195643 19.4005 1.05298 20.8262 2.89769C20.8985 2.99402 21.0141 3.11444 21.1152 3.11925C22.2471 3.1337 23.3838 3.12889 24.5686 3.12889C24.5686 2.12224 24.5686 1.17339 24.5686 0.205276C33.4358 0.205276 42.25 0.205276 51.0641 0.205276C51.0641 5.28186 51.0641 10.3584 51.0641 15.4398C51.0449 15.4832 51.0063 15.5265 51.0015 15.5699C50.7222 17.429 49.8311 18.9222 48.3236 20.054C48.2417 20.1166 48.1405 20.2226 48.1405 20.3093C48.1261 21.4412 48.1309 22.5731 48.1309 23.7386C49.1472 23.7386 50.1057 23.7386 51.0641 23.7386C51.0641 32.5576 51.0641 41.3814 51.0641 50.2004C45.9779 50.2004 40.8869 50.2004 35.8007 50.2004C35.7718 50.1812 35.7477 50.1571 35.7188 50.1523C33.8211 49.8681 32.2943 48.9722 31.1528 47.4261C31.0998 47.3587 31.0035 47.2816 30.9264 47.2816C29.7897 47.272 28.6578 47.2768 27.4874 47.2768C27.4874 48.2883 27.4874 49.2468 27.4874 50.2004C18.6588 50.2004 9.83018 50.2004 0.972656 50.2004C0.972656 45.1239 0.972656 40.0473 0.972656 34.9659C0.987106 34.937 1.00156 34.9081 1.00637 34.8744C1.32426 33.0008 2.18641 31.4547 3.75177 30.3276C3.8192 30.2794 3.89627 30.1735 3.89627 30.0964C3.9059 28.9645 3.90108 27.8327 3.90108 26.6671C2.88962 26.6671 1.93114 26.6671 0.972656 26.6671ZM18.6877 35.4572C18.9141 35.4572 19.0923 35.4572 19.2705 35.4572C22.9888 35.4572 26.7072 35.4475 30.4207 35.4668C30.8734 35.4716 31.1576 35.3416 31.4321 34.9803C32.0631 34.1471 32.8819 33.5113 33.85 33.1356C34.6158 32.837 35.4298 32.6588 36.2727 32.4131C36.2679 32.4469 36.2872 32.3842 36.2872 32.3216C36.2872 28.3673 36.292 24.413 36.2775 20.4586C36.2775 20.29 36.1282 20.0829 35.9837 19.9673C34.7989 19.0233 33.9849 17.8336 33.5947 16.3742C33.4743 15.9215 33.4165 15.4543 33.325 14.9774C33.248 14.9726 33.1661 14.9582 33.089 14.9582C29.1588 14.9582 25.2285 14.9534 21.3031 14.9678C21.1297 14.9678 20.9081 15.0979 20.7973 15.2375C19.9833 16.2538 18.996 17.0293 17.7629 17.4579C17.1223 17.6795 16.448 17.7903 15.7785 17.9589C15.7785 17.9637 15.7593 17.9974 15.7593 18.0263C15.7545 22.0143 15.7545 25.9976 15.7593 29.9856C15.7593 30.1109 15.8267 30.2794 15.923 30.3469C17.604 31.6136 18.495 33.3186 18.6877 35.4572ZM15.7593 14.9437C16.0386 14.8811 16.2795 14.8426 16.5106 14.7752C17.7437 14.4139 18.5336 13.571 19.0297 12.4295C19.1645 12.1213 19.3379 11.996 19.6895 12.0105C20.4698 12.0394 21.2549 12.0201 22.0352 12.0201C22.8588 12.0201 23.6872 12.0201 24.5205 12.0201C24.5205 10.0068 24.5205 8.05134 24.5205 6.06213C22.9888 6.06213 21.4909 6.03323 19.993 6.07658C19.4198 6.09584 19.1308 5.92727 18.8948 5.40227C18.1868 3.85617 16.9393 3.12407 15.2343 3.12889C11.6315 3.14333 8.02881 3.13852 4.42608 3.13852C4.26713 3.13852 4.10819 3.13852 3.93961 3.13852C3.93961 6.12474 3.93961 9.05798 3.93961 12.0442C7.88913 12.0442 11.8049 12.0442 15.7593 12.0442C15.7593 13.0316 15.7593 13.9708 15.7593 14.9437ZM45.1928 23.7194C45.1928 22.154 45.2266 20.6416 45.1784 19.1293C45.1591 18.585 45.347 18.3297 45.8238 18.113C47.4084 17.3857 48.1454 16.119 48.1357 14.3754C48.1165 10.8112 48.1309 7.2518 48.1309 3.6876C48.1309 3.5142 48.1309 3.34081 48.1309 3.17223C45.1302 3.17223 42.1922 3.17223 39.2011 3.17223C39.2011 7.11694 39.2011 11.0279 39.2011 14.9774C38.2089 14.9774 37.2745 14.9774 36.3305 14.9774C36.4894 16.4465 37.2167 17.4676 38.6569 18.1419C39.1096 18.3538 39.2589 18.6043 39.2397 19.0955C39.2011 20.2515 39.2252 21.4075 39.2252 22.5586C39.2252 22.9439 39.2252 23.3292 39.2252 23.7194C41.2385 23.7194 43.1892 23.7194 45.1928 23.7194ZM15.7352 35.462C15.5281 33.993 14.8297 32.9333 13.5485 32.3602C12.9416 32.0904 12.7682 31.7485 12.7971 31.1127C12.8501 29.7978 12.8116 28.4781 12.8116 27.1584C12.8116 27.0042 12.7971 26.8453 12.7923 26.6912C10.7935 26.6912 8.8428 26.6912 6.84877 26.6912C6.84877 26.8742 6.84877 27.0283 6.84877 27.1873C6.84877 28.5359 6.81987 29.8893 6.86322 31.2379C6.88249 31.7822 6.72354 32.0712 6.213 32.3024C4.64282 33.0104 3.90108 34.2675 3.91071 35.987C3.92035 39.5656 3.91553 43.1443 3.91553 46.7229C3.91553 46.8963 3.91553 47.0649 3.91553 47.2287C6.92102 47.2287 9.85908 47.2287 12.8357 47.2287C12.8357 43.2936 12.8357 39.3922 12.8357 35.4572C13.799 35.462 14.7382 35.462 15.7352 35.462ZM36.2775 38.3856C36.2775 37.3886 36.2775 36.4397 36.2775 35.4716C34.8229 35.6691 33.7633 36.3723 33.1853 37.6487C32.9108 38.2555 32.5736 38.4241 31.9379 38.4C30.6181 38.3471 29.2984 38.3856 27.9787 38.3856C27.8246 38.3856 27.6656 38.4 27.5115 38.4049C27.5115 40.3989 27.5115 42.3447 27.5115 44.3388C27.6945 44.3388 27.8487 44.3388 28.0076 44.3388C29.361 44.3388 30.7145 44.3677 32.0679 44.3243C32.617 44.3051 32.9012 44.464 33.1324 44.9697C33.8452 46.5351 35.1023 47.2768 36.8266 47.2672C40.4149 47.2576 43.9984 47.2624 47.5866 47.2624C47.76 47.2624 47.9334 47.2624 48.0924 47.2624C48.0924 44.2617 48.0924 41.3285 48.0924 38.376C44.1573 38.3856 40.2656 38.3856 36.2775 38.3856ZM36.2583 12.0009C36.2583 9.02909 36.2583 6.09584 36.2583 3.17705C33.3154 3.17705 30.411 3.17705 27.5115 3.17705C27.5115 6.13919 27.5115 9.05798 27.5115 12.0009C30.4303 12.0009 33.325 12.0009 36.2583 12.0009ZM48.0924 35.4331C48.0924 32.495 48.0924 29.5907 48.0924 26.7056C45.1206 26.7056 42.1777 26.7056 39.2493 26.7056C39.2493 29.634 39.2493 32.5239 39.2493 35.4331C42.2066 35.4331 45.135 35.4331 48.0924 35.4331ZM12.7779 23.7194C12.7779 20.7813 12.7779 17.8818 12.7779 14.9919C9.8061 14.9919 6.86322 14.9919 3.9348 14.9919C3.9348 17.9203 3.9348 20.8102 3.9348 23.7194C6.8873 23.7194 9.81573 23.7194 12.7779 23.7194ZM15.7689 47.2383C18.7118 47.2383 21.6209 47.2383 24.5157 47.2383C24.5157 44.2713 24.5157 41.3381 24.5157 38.4145C21.5824 38.4145 18.6877 38.4145 15.7689 38.4145C15.7689 41.3574 15.7689 44.281 15.7689 47.2383Z" fill="white"/>
<path d="M33.9518 7.78644C33.2149 8.42221 32.4924 9.04836 31.7362 9.7034C31.0956 8.96166 30.4695 8.244 29.8145 7.49263C30.5562 6.85204 31.2787 6.22589 32.03 5.57567C32.6755 6.31741 33.3016 7.03988 33.9518 7.78644Z" fill="white"/>
<path d="M45.6784 31.2235C44.9367 31.8641 44.2239 32.4806 43.4677 33.1404C42.8271 32.3987 42.1913 31.6762 41.5459 30.9248C42.3021 30.2746 43.0294 29.6485 43.7663 29.0127C44.4021 29.7544 45.0186 30.4673 45.6784 31.2235Z" fill="white"/>
<path d="M6.33301 19.1967C7.0892 18.5417 7.81649 17.9203 8.55341 17.2798C9.19882 18.0215 9.81533 18.7343 10.4704 19.4905C9.73827 20.1215 9.02061 20.7476 8.2596 21.4075C7.61901 20.6802 6.99287 19.9625 6.33301 19.1967Z" fill="white"/>
<path d="M18.061 42.6338C18.8172 41.9835 19.5301 41.3718 20.2814 40.7216C20.922 41.4585 21.5434 42.1762 22.1984 42.9324C21.4615 43.5682 20.7438 44.1895 19.9828 44.8493C19.347 44.1172 18.7209 43.3948 18.061 42.6338Z" fill="white"/>
</svg>
