<svg width="55" height="55" viewBox="0 0 55 55" fill="none" xmlns="http://www.w3.org/2000/svg">
<path d="M54.1632 27.1043C54.1506 40.1874 44.764 51.4665 31.9458 53.7626C18.0047 56.2481 4.56825 47.6311 0.997821 33.8919C-2.86279 19.0676 6.70043 3.73876 21.6887 0.736062C25.2717 0.0169295 28.8548 0.00428851 32.4504 0.710805C33.7625 0.963132 34.5574 1.97245 34.3555 3.12053C34.1284 4.38217 33.0434 5.06348 31.6808 4.79853C20.6415 2.65375 9.93021 8.53295 5.85513 18.9667C0.985212 31.4317 8.03775 45.5494 20.9443 49.145C33.3083 52.6019 45.9373 45.398 49.2428 32.9961C50.3152 28.9841 50.2647 24.9595 49.1419 20.9601C49.0409 20.6068 48.94 20.2409 48.9274 19.8877C48.8769 18.8405 49.6087 17.9826 50.6685 17.7934C51.6651 17.6167 52.7123 18.2097 52.9646 19.2569C53.381 20.9727 53.7216 22.7137 54.0118 24.4548C54.1253 25.3253 54.1001 26.2211 54.1632 27.1043Z" fill="white"/>
<path d="M29.2209 14.0465C32.8166 14.3114 35.3273 15.9642 36.5637 19.3075C36.8286 20.0266 36.9422 20.8215 36.98 21.5911C37.0557 22.9032 36.1599 23.862 34.9614 23.8873C33.7881 23.9125 32.9175 23.0167 32.8418 21.7298C32.7409 19.7238 31.2143 18.2477 29.2462 18.2856C29.2462 20.5439 29.2462 22.8022 29.2462 25.1236C31.6811 25.1867 33.7628 26.0573 35.3146 27.9749C36.5006 29.4384 37.0557 31.1417 36.9926 33.0341C36.8917 36.1756 34.4946 40.1245 29.2083 40.3516C29.2083 41.5123 29.2209 42.673 29.2083 43.8337C29.1957 44.7169 28.7415 45.3603 27.9467 45.7135C27.1645 46.0542 26.4201 45.9154 25.7767 45.3477C25.2846 44.9313 25.0702 44.3888 25.0702 43.7454C25.0702 42.6225 25.0702 41.4997 25.0702 40.3768C24.3258 40.2633 23.6193 40.1876 22.938 40.0236C19.7208 39.2161 17.3363 36.2134 17.2859 32.9458C17.2606 31.6463 18.0681 30.7127 19.254 30.6622C20.4778 30.6118 21.3736 31.4697 21.4366 32.7944C21.5376 34.7752 23.1272 36.2513 25.0323 36.0873C25.0323 33.8542 25.0323 31.6085 25.0323 29.3249C22.5216 29.2744 20.44 28.3408 18.8881 26.3601C17.7022 24.8587 17.1723 23.1176 17.2985 21.2126C17.5382 17.6674 20.2886 14.2231 25.0702 14.0717C25.0702 12.9363 25.0702 11.8008 25.0702 10.6653C25.0702 9.87046 25.3982 9.23966 26.0795 8.82332C27.442 7.99064 29.1579 8.93686 29.2209 10.5518C29.2462 11.1321 29.2209 11.7251 29.2209 12.3054C29.2209 12.8731 29.2209 13.4535 29.2209 14.0465ZM25.0323 18.273C22.9128 18.2477 21.3357 19.8626 21.4366 21.8938C21.5249 23.7737 23.2155 25.2877 25.0323 25.0732C25.0323 22.8275 25.0323 20.5691 25.0323 18.273ZM29.2588 29.3375C29.2588 31.5958 29.2588 33.8416 29.2588 36.0999C31.2396 36.1882 32.8544 34.6616 32.8544 32.7187C32.8544 30.7632 31.2396 29.2366 29.2588 29.3375Z" fill="white"/>
<path d="M48.9021 8.3817C48.7381 8.54571 48.5615 8.69711 48.3975 8.86113C46.5428 10.7157 44.663 12.5325 42.8589 14.4249C41.7739 15.5604 40.3734 15.409 39.6417 14.652C38.7838 13.7689 38.8721 12.5073 39.894 11.4979C41.7612 9.63072 43.6158 7.76351 45.4957 5.9089C45.6597 5.74489 45.912 5.69441 46.1265 5.58087C46.0508 5.46732 45.9751 5.35379 45.912 5.24024C45.3821 5.24024 44.8522 5.25285 44.3224 5.24024C43.9312 5.22762 43.5401 5.2276 43.1616 5.17713C42.0136 5.01312 41.2313 4.06691 41.307 2.9819C41.3954 1.88427 42.3038 1.03897 43.4518 1.07681C45.5714 1.12728 47.6909 1.2282 49.7979 1.3039C50.2142 1.31652 50.6179 1.32916 51.0343 1.36701C52.094 1.4427 52.9267 2.22489 52.9646 3.27205C53.0907 5.82055 53.1917 8.3691 53.2547 10.9176C53.2926 12.0657 52.4221 12.9741 51.3244 13.0371C50.2394 13.1002 49.2932 12.3054 49.1544 11.1573C49.104 10.7031 49.0914 10.2489 49.0914 9.79473C49.0787 9.35315 49.0914 8.89896 49.0914 8.44477C49.0157 8.43215 48.9526 8.40693 48.9021 8.3817Z" fill="white"/>
</svg>
