<svg width="58" height="58" viewBox="0 0 58 58" fill="none" xmlns="http://www.w3.org/2000/svg">
<path d="M32.6985 0.754883C33.3636 1.07702 33.5981 1.62331 33.5654 2.34032C33.5254 3.21023 33.5669 4.08608 33.4957 4.95302C33.371 6.46127 32.6985 7.72308 31.5747 8.72215C31.263 8.99975 31.1576 9.27586 31.1635 9.67816C31.1843 10.9949 31.1769 12.3131 31.1695 13.6299C31.165 14.476 30.69 15.0134 29.9789 15.003C29.2753 14.9926 28.8121 14.4449 28.8121 13.5987C28.8121 11.8752 28.7928 10.1487 28.8492 8.42673C28.8596 8.09124 29.0956 7.63698 29.3718 7.45884C30.9527 6.43455 31.3387 4.95451 31.1249 3.11968C30.9186 3.11968 30.7048 3.11968 30.4911 3.11968C26.5082 3.11968 22.5268 3.11819 18.5439 3.11968C16.0247 3.12116 14.5877 4.56706 14.5862 7.09514C14.5862 7.33415 14.5862 7.57167 14.5862 7.87895C14.8193 7.87895 15.0167 7.87895 15.2127 7.87895C18.5097 7.87895 21.8068 7.8745 25.1038 7.88192C26.0985 7.88341 26.7101 8.71918 26.3315 9.54752C26.0851 10.0864 25.6249 10.2512 25.0563 10.2497C22.7969 10.2393 20.5376 10.2452 18.2767 10.2452C17.0757 10.2452 15.8733 10.2452 14.6278 10.2452C14.6129 10.4397 14.5892 10.5971 14.5877 10.7559C14.5847 12.5373 14.5758 14.3187 14.5877 16.1001C14.61 19.5292 17.1826 22.1078 20.6103 22.1241C21.6821 22.1301 22.7702 22.1746 23.8242 22.0202C25.9649 21.707 27.4805 20.4689 28.3326 18.4871C28.6444 17.7627 29.0541 17.3738 29.8602 17.3916C31.0611 17.4168 32.2635 17.3975 33.5313 17.3975C33.5432 17.1392 33.561 16.9447 33.561 16.7503C33.5625 15.0431 33.5551 13.3359 33.564 11.6288C33.5758 9.35305 35.0574 7.87895 37.3346 7.87747C42.7248 7.8745 48.1149 7.8745 53.5051 7.87747C55.7586 7.87895 57.2579 9.3872 57.2609 11.654C57.2653 14.6779 57.2653 17.7033 57.2609 20.7272C57.2579 22.9955 55.7764 24.4889 53.5007 24.4904C47.6473 24.4978 41.794 24.4845 35.9421 24.4993C34.7768 24.5023 33.8223 24.1089 33.0147 23.2761C32.0617 22.2919 31.0819 21.3314 30.1853 20.4318C29.253 21.3997 28.34 22.3483 27.4167 23.3088C27.4701 23.337 27.5948 23.4038 27.7225 23.4646C30.2669 24.6715 32.2903 26.4678 33.7718 28.8652C33.9514 29.1562 34.137 29.2645 34.474 29.2601C36.0846 29.2423 37.6968 29.2467 39.3075 29.2541C41.6693 29.2645 43.2324 31.0459 43.0083 33.3988C42.554 38.1804 42.128 42.9649 41.6871 47.7479C41.4807 49.9821 41.2744 52.2177 41.0532 54.4504C40.8929 56.07 39.9458 57.1893 38.3886 57.6435C38.3039 57.6688 38.2267 57.7163 38.1451 57.7549C27.1806 57.7549 16.2147 57.7549 5.25027 57.7549C5.20573 57.7252 5.16416 57.6792 5.11518 57.6658C3.41543 57.2056 2.4906 56.0937 2.32879 54.3435C1.77952 48.3996 1.23769 42.4557 0.685455 36.5118C0.594901 35.538 0.468719 34.5671 0.360352 33.5948C0.360352 33.1494 0.360352 32.7041 0.360352 32.2587C0.385588 32.2098 0.418247 32.1623 0.434576 32.1103C1.05806 30.1092 2.22042 29.2527 4.31949 29.2527C5.83664 29.2527 7.35527 29.2378 8.87242 29.263C9.25691 29.269 9.46028 29.1354 9.65772 28.8147C10.8869 26.8211 12.5258 25.2401 14.5432 24.0599C15.0301 23.7749 15.5408 23.5299 16.0306 23.2716C16.0173 23.2152 16.0188 23.1915 16.0084 23.1826C15.805 23.0237 15.5957 22.8708 15.3953 22.709C13.461 21.1473 12.3179 19.1314 12.2585 16.6419C12.1769 13.232 12.2155 9.81918 12.2467 6.40782C12.2615 4.812 12.9459 3.47744 14.086 2.37149C15.0049 1.48228 16.142 1.03545 17.3622 0.754883C22.4748 0.754883 27.5859 0.754883 32.6985 0.754883ZM12.2407 29.2571C12.5733 29.2571 12.7751 29.2571 12.977 29.2571C17.7185 29.2571 22.4585 29.2571 27.1999 29.2571C27.3855 29.2571 27.5726 29.2467 27.7551 29.269C28.3593 29.3447 28.8062 29.8509 28.8062 30.4432C28.8062 31.0623 28.3386 31.5596 27.6973 31.6115C27.4761 31.6293 27.2534 31.6219 27.0307 31.6219C19.5311 31.6219 12.0299 31.6219 4.53029 31.6219C4.36402 31.6219 4.19628 31.616 4.03001 31.6249C3.1215 31.6709 2.66131 32.2246 2.74741 33.1301C2.98938 35.6775 3.22393 38.2264 3.45848 40.7738C3.86078 45.1308 4.25566 49.4892 4.66538 53.8462C4.78562 55.1259 5.1033 55.3916 6.39778 55.3916C16.6022 55.3916 26.8066 55.3916 37.0095 55.3916C37.195 55.3916 37.3806 55.399 37.5647 55.3782C38.2312 55.3025 38.6365 54.8958 38.7003 54.2203C38.9586 51.4888 39.2139 48.7559 39.4648 46.0229C39.8537 41.7758 40.2323 37.5272 40.6242 33.2801C40.7296 32.1341 40.2872 31.6249 39.1204 31.6219C37.3242 31.6174 35.5265 31.5922 33.7317 31.6338C32.9271 31.6516 32.4402 31.3517 32.0527 30.6436C29.4074 25.8116 23.8465 23.4661 18.5468 24.9402C16.0128 25.6468 13.936 27.0586 12.2407 29.2571ZM33.0429 19.7653C33.0088 19.8202 32.9746 19.8736 32.9405 19.9286C33.5254 20.4867 34.1221 21.033 34.6922 21.6075C35.0544 21.9727 35.4582 22.139 35.9777 22.1375C41.7895 22.1271 47.6028 22.1316 53.4146 22.1301C54.4552 22.1301 54.8946 21.6921 54.8961 20.6411C54.9005 17.6736 54.9005 14.7061 54.8961 11.7401C54.8946 10.6891 54.4567 10.2482 53.4086 10.2482C48.0778 10.2452 42.747 10.2452 37.4147 10.2482C36.337 10.2482 35.9213 10.6802 35.9213 11.7787C35.9198 13.9862 35.9243 16.1921 35.9184 18.3995C35.9154 19.2754 35.4641 19.7371 34.5927 19.7623C34.0761 19.7771 33.5595 19.7653 33.0429 19.7653Z" fill="white"/>
<path d="M21.7517 38.7519C24.4075 38.8202 26.514 40.9994 26.4412 43.6047C26.3685 46.2278 24.1803 48.3358 21.6122 48.2586C18.9787 48.1799 16.8915 46.02 16.9479 43.4355C17.0073 40.8154 19.1895 38.6866 21.7517 38.7519ZM24.0527 43.5097C24.0482 42.1811 23.0209 41.1509 21.6983 41.1479C20.3771 41.1464 19.3424 42.1826 19.3409 43.5067C19.3409 44.8309 20.3696 45.8626 21.6953 45.8686C23.0135 45.873 24.0556 44.8294 24.0527 43.5097Z" fill="white"/>
<path d="M44.4454 20.9247C43.3884 20.9395 42.8451 20.1809 43.1271 19.3125C43.807 17.2179 44.5107 15.1307 45.2054 13.0391C45.2752 12.8283 45.339 12.6145 45.4133 12.4067C45.6879 11.6436 46.2921 11.2888 46.9467 11.5071C47.6385 11.7372 47.9221 12.377 47.6578 13.1816C47.0269 15.0995 46.3841 17.0116 45.7458 18.9265C45.6107 19.3303 45.4934 19.7415 45.3405 20.1379C45.1505 20.6307 44.7853 20.9113 44.4454 20.9247Z" fill="white"/>
<path d="M50.8881 16.2055C50.3403 15.6711 49.8697 15.2257 49.417 14.764C48.8677 14.2014 48.8425 13.471 49.3383 12.9886C49.8207 12.518 50.5244 12.5403 51.0692 13.0717C51.8115 13.7961 52.5448 14.528 53.2662 15.2717C53.8615 15.8848 53.86 16.5053 53.2603 17.1259C52.5403 17.8711 51.807 18.6044 51.0648 19.3274C50.4784 19.8974 49.7881 19.9197 49.2923 19.4149C48.7935 18.9058 48.8261 18.2274 49.4021 17.641C49.8682 17.1659 50.3566 16.7147 50.8881 16.2055Z" fill="white"/>
<path d="M39.9874 16.3123C40.4194 16.7132 40.9033 17.1392 41.3605 17.5935C41.9454 18.1769 41.9766 18.9176 41.4674 19.406C40.9686 19.884 40.2665 19.838 39.6935 19.2724C38.9824 18.5703 38.2758 17.8651 37.5781 17.1511C36.9531 16.5128 36.9442 15.8863 37.5588 15.2539C38.2683 14.525 38.9883 13.8065 39.7142 13.094C40.2843 12.5343 40.9968 12.4942 41.4882 12.9708C41.9914 13.4606 41.9499 14.191 41.3754 14.7893C40.9404 15.242 40.4966 15.6874 40.0572 16.1372C40.0423 16.1491 40.0408 16.1713 39.9874 16.3123Z" fill="white"/>
</svg>
