<svg width="52" height="69" viewBox="0 0 52 69" fill="none" xmlns="http://www.w3.org/2000/svg">
<path d="M7.38679 42.4074C9.18449 42.4074 10.9801 42.4054 12.7778 42.4074C14.0037 42.4074 14.267 42.6481 14.3411 43.8657C14.6126 48.2859 16.6797 51.5975 20.5919 53.6297C27.9184 57.4369 36.8 52.1508 37.0653 43.8801C37.1023 42.7283 37.417 42.4074 38.5401 42.4074C42.2363 42.4054 45.9325 42.4054 49.6287 42.4074C50.7188 42.4074 51.0643 42.7489 51.0705 43.8184C51.0767 44.9764 51.0602 46.1324 51.0767 47.2904C51.087 48.0576 50.7414 48.4875 49.9886 48.6274C49.0054 48.8084 48.0202 48.9853 47.0514 49.2259C46.7778 49.2938 46.4426 49.5242 46.3315 49.7689C45.7617 51.0319 45.2352 52.3153 44.7498 53.6132C44.6552 53.8683 44.7066 54.2673 44.8506 54.5059C45.3648 55.3636 45.9345 56.1905 46.5043 57.0132C46.9403 57.6426 46.891 58.198 46.3521 58.7369C44.5503 60.5325 42.7608 62.3405 40.9569 64.132C40.3316 64.7532 39.9429 64.7779 39.1901 64.2822C38.3755 63.7453 37.5878 63.1653 36.7506 62.6676C36.4935 62.5153 36.0698 62.4536 35.7983 62.5544C34.5271 63.0316 33.2725 63.5582 32.0363 64.1197C31.7874 64.2328 31.5344 64.5434 31.4665 64.8108C31.232 65.7302 31.0778 66.6702 30.8968 67.602C30.6993 68.6222 30.4175 68.8834 29.4097 68.8875C26.9455 68.8978 24.4814 68.8978 22.0173 68.8875C21.0197 68.8834 20.7564 68.653 20.5548 67.6801C20.3574 66.7237 20.1969 65.759 19.9563 64.817C19.8884 64.5496 19.6395 64.2328 19.3927 64.1197C18.1319 63.5479 16.8525 63.0193 15.5608 62.5215C15.3283 62.4331 14.9581 62.4865 14.7401 62.6202C13.8865 63.1427 13.072 63.7268 12.2369 64.2781C11.48 64.7779 11.0891 64.7532 10.47 64.1362C8.66616 62.3426 6.87874 60.5325 5.07487 58.741C4.53186 58.2 4.47015 57.655 4.90621 57.0235C5.49036 56.1781 6.07451 55.3328 6.6093 54.4565C6.74094 54.2406 6.78207 53.8683 6.69363 53.6338C6.19998 52.34 5.67342 51.0565 5.10367 49.7936C4.99054 49.5447 4.66762 49.2979 4.39817 49.23C3.4047 48.9812 2.39478 48.794 1.38691 48.6109C0.691692 48.4855 0.362587 48.0885 0.364644 47.3912C0.366701 46.1304 0.350252 44.8715 0.37082 43.6107C0.385218 42.7653 0.757513 42.4136 1.61934 42.4095C3.53634 42.4013 5.46156 42.4074 7.38679 42.4074ZM48.8409 44.6165C45.6178 44.6165 42.4235 44.6165 39.2333 44.6165C38.5401 51.5152 33.0503 56.7294 26.24 57.0194C23.2535 57.1469 20.4973 56.3489 18.0434 54.6293C14.5653 52.194 12.6709 48.8002 12.1957 44.6309C8.93355 44.6309 5.74129 44.6309 2.51201 44.6309C2.51201 45.1554 2.5367 45.6182 2.50585 46.0789C2.475 46.5397 2.66628 46.7001 3.10851 46.7659C3.91891 46.8832 4.71698 47.0868 5.52533 47.2225C6.16296 47.3295 6.58256 47.6401 6.82939 48.2613C7.52255 50.0014 8.23422 51.7332 8.9747 53.4548C9.23797 54.0678 9.17832 54.5738 8.7978 55.1086C8.20747 55.9375 7.65829 56.7993 7.12968 57.5912C8.65587 59.1236 10.1204 60.5922 11.6178 62.0937C12.422 61.5527 13.2838 60.9974 14.1169 60.405C14.6249 60.045 15.1083 59.9669 15.6965 60.2199C17.4387 60.9686 19.1891 61.6967 20.9477 62.4022C21.536 62.6388 21.8486 63.0254 21.9515 63.6425C22.0975 64.5023 22.2497 65.3641 22.4575 66.2095C22.5068 66.4131 22.7845 66.7052 22.9614 66.7093C24.9092 66.7443 26.8571 66.7319 28.8461 66.7319C29.0662 65.6562 29.2986 64.6339 29.4755 63.6014C29.5783 63.0028 29.8807 62.647 30.436 62.4228C32.1926 61.7111 33.9471 60.9871 35.6872 60.2363C36.2693 59.9854 36.7527 60.0286 37.2669 60.3927C38.1205 60.9953 39.0008 61.561 39.7619 62.069C41.2963 60.5325 42.7628 59.066 44.2644 57.5645C43.7522 56.7993 43.2174 55.9539 42.6353 55.1435C42.2322 54.5841 42.1807 54.0472 42.4564 53.4158C42.9994 52.1693 43.4848 50.8982 44.0237 49.6496C45.1447 47.0498 44.5256 47.5455 47.218 46.9798C49.0116 46.6014 49.0116 46.6034 48.8943 44.7502C48.8923 44.7193 48.8758 44.6967 48.8409 44.6165Z" fill="white"/>
<path d="M20.7147 21.2402C20.0832 21.2402 19.5443 21.2587 19.0075 21.2361C18.1662 21.2011 17.5348 20.8186 17.2016 20.0246C16.8786 19.2553 17.0493 18.5581 17.5903 17.9533C19.7994 15.4851 22.0023 13.0127 24.236 10.5671C25.1164 9.60452 26.3135 9.61069 27.2 10.5836C29.4296 13.0313 31.6325 15.5057 33.8396 17.976C34.3887 18.5889 34.5039 19.3026 34.1913 20.0555C33.8745 20.8185 33.2513 21.1929 32.443 21.234C31.8835 21.2628 31.3199 21.2402 30.637 21.2402C30.637 21.5755 30.637 21.8449 30.637 22.1164C30.637 26.4338 30.6494 30.7512 30.6226 35.0685C30.6185 35.6486 30.8057 35.99 31.2603 36.3397C34.4875 38.8326 35.6229 43.1623 34.0761 46.9346C32.5211 50.7295 28.6871 52.9324 24.4644 52.4573C20.6633 52.0274 17.3373 48.8372 16.7717 44.9127C16.2657 41.4037 17.4587 38.5055 20.2149 36.2512C20.4699 36.0435 20.727 35.6547 20.7291 35.3483C20.762 30.8252 20.7517 26.3022 20.7497 21.7791C20.7497 21.6269 20.7311 21.4788 20.7147 21.2402ZM28.4814 34.8299C28.4814 34.1553 28.4814 33.6184 28.4814 33.0836C28.4814 28.9185 28.4794 24.7554 28.4835 20.5902C28.4855 19.4034 28.8044 19.0928 29.9994 19.0846C30.5774 19.0805 31.1574 19.0846 31.939 19.0846C29.7834 16.6822 27.7697 14.4382 25.7088 12.1406C23.6519 14.432 21.6279 16.6884 19.4765 19.0846C20.256 19.0846 20.8155 19.0826 21.3749 19.0846C22.6276 19.0908 22.9073 19.3705 22.9073 20.6314C22.9094 25.0536 22.9073 29.4738 22.9073 33.8961C22.9073 34.1738 22.9073 34.4535 22.9073 34.832C24.775 34.2766 26.5726 34.2622 28.4814 34.8299ZM32.5952 43.5181C32.6096 39.6882 29.5345 36.5741 25.7314 36.5618C21.92 36.5515 18.8265 39.6389 18.8183 43.4667C18.808 47.2719 21.9262 50.4004 25.7191 50.3922C29.4872 50.3839 32.5808 47.2904 32.5952 43.5181Z" fill="white"/>
<path d="M47.0148 12.2928C47.0148 12.7248 47.0148 13.0539 47.0148 13.383C47.0148 21.4007 47.0148 29.4183 47.0148 37.438C47.0148 37.7198 47.0231 38.0037 46.9984 38.2855C46.8832 39.5998 46.0522 40.3876 44.7235 40.404C43.1582 40.4226 41.5929 40.4082 40.0297 40.4082C37.7857 40.4082 37.1151 39.7273 37.1151 37.4483C37.1151 29.8667 37.1151 22.2851 37.1151 14.7056C37.1151 13.9383 37.1151 13.1732 37.1151 12.2928C36.5495 12.2928 36.0456 12.2949 35.5437 12.2928C34.6469 12.2867 33.9352 11.9432 33.5691 11.0896C33.2153 10.2668 33.4477 9.54487 34.0319 8.8949C36.1813 6.511 38.3143 4.11269 40.4699 1.73495C41.4819 0.620131 42.6378 0.61396 43.6457 1.72467C45.8033 4.10035 47.9363 6.49866 50.0857 8.88256C50.6905 9.5531 50.9229 10.2936 50.53 11.1451C50.1536 11.9596 49.4584 12.2805 48.5966 12.2908C48.1111 12.299 47.6278 12.2928 47.0148 12.2928ZM39.2707 38.1929C41.1816 38.1929 42.9875 38.1929 44.8592 38.1929C44.8592 37.833 44.8592 37.5285 44.8592 37.2241C44.8592 30.9795 44.8592 24.7328 44.8592 18.4881C44.8592 16.1495 44.8531 13.8108 44.8633 11.4722C44.8675 10.4622 45.1986 10.1496 46.2126 10.1373C46.84 10.129 47.4673 10.1352 48.3024 10.1352C46.1345 7.72043 44.1188 5.47434 42.0619 3.18299C40.003 5.47845 37.9831 7.73072 35.8275 10.1352C36.5762 10.1352 37.0843 10.1352 37.5923 10.1352C39.0609 10.1373 39.2687 10.3471 39.2687 11.8486C39.2687 20.2797 39.2687 28.7087 39.2687 37.1398C39.2707 37.4668 39.2707 37.798 39.2707 38.1929Z" fill="white"/>
<path d="M14.2762 30.9898C14.2762 33.4478 14.2885 35.807 14.27 38.1642C14.2597 39.5094 13.3938 40.3589 12.0507 40.4062C11.9992 40.4082 11.9478 40.4082 11.8964 40.4082C10.2036 40.4082 8.51079 40.4165 6.81799 40.4062C5.25271 40.3979 4.40734 39.5423 4.40323 37.9626C4.395 35.6795 4.40117 33.3943 4.40117 30.9898C3.8417 30.9898 3.31515 30.9919 2.7886 30.9898C1.9206 30.9857 1.23977 30.6484 0.869536 29.8298C0.501357 29.0111 0.696761 28.281 1.28297 27.6289C3.46325 25.2059 5.63118 22.7706 7.82586 20.36C8.76173 19.3315 9.9506 19.348 10.8968 20.3888C13.0709 22.7829 15.2223 25.1977 17.3882 27.6001C17.9744 28.2501 18.1739 28.9803 17.8263 29.801C17.4602 30.6607 16.7485 30.9919 15.8518 30.9898C15.3684 30.9898 14.8809 30.9898 14.2762 30.9898ZM9.34999 21.8841C7.2705 24.2001 5.25888 26.4421 3.11357 28.8301C3.88695 28.8301 4.46493 28.8281 5.04291 28.8301C6.23795 28.8342 6.55676 29.1448 6.55882 30.3193C6.56088 32.6826 6.55882 35.046 6.55882 37.4093C6.55882 37.6788 6.55882 37.9482 6.55882 38.2074C8.46965 38.2074 10.2571 38.2074 12.1206 38.2074C12.1206 37.8927 12.1206 37.6171 12.1206 37.3414C12.1206 35.0028 12.1185 32.6662 12.1227 30.3275C12.1247 29.1613 12.462 28.8342 13.6427 28.8301C14.2309 28.8281 14.8192 28.8301 15.5864 28.8301C13.4288 26.4257 11.4233 24.194 9.34999 21.8841Z" fill="white"/>
<path d="M24.2499 44.2915C25.6177 42.9196 26.8888 41.6196 28.1929 40.3567C28.45 40.1078 28.8531 39.8363 29.1658 39.861C29.5031 39.8898 30.0029 40.2004 30.0831 40.4884C30.186 40.8504 30.0687 41.4283 29.8178 41.7122C28.9354 42.7098 27.9584 43.623 27.0164 44.5671C26.3088 45.2747 25.6115 45.9925 24.8937 46.6878C24.2046 47.3542 23.495 47.2616 22.9952 46.4327C22.4522 45.5339 21.9297 44.6206 21.4176 43.7012C21.0309 43.008 21.1481 42.4321 21.7076 42.0927C22.2856 41.7431 22.8677 41.9446 23.3017 42.6604C23.6061 43.1602 23.892 43.6744 24.2499 44.2915Z" fill="white"/>
</svg>
