<svg xmlns="http://www.w3.org/2000/svg" width="55" height="54" viewBox="0 0 55 54" fill="none">
<path d="M20.5489 39.5246C20.1578 39.5246 19.9384 39.5246 19.7286 39.5246C15.0357 39.5246 10.3427 39.5246 5.64982 39.5246C3.6372 39.5246 2.62613 38.5135 2.62613 36.52C2.62613 33.0575 2.62613 29.5855 2.62613 26.1231C2.62613 25.8846 2.62613 25.6461 2.62613 25.3695C2.44489 25.3314 2.29228 25.3028 2.13966 25.2741C0.975971 25.0357 0.0793563 24.0437 0.0698179 22.8514C0.0507409 18.4828 0.0412025 14.1046 0.0698179 9.73599C0.0793563 8.35292 1.22397 7.29415 2.62613 7.27507C4.09505 7.25599 5.56397 7.27507 6.94705 7.27507C7.56705 5.70122 8.1489 4.19415 8.74982 2.67753C9.27443 1.36122 10.0566 0.836609 11.4778 0.836609C18.4695 0.836609 25.4517 0.836609 32.4434 0.836609C33.8741 0.836609 34.6467 1.37076 35.1809 2.67753C35.6387 3.79353 36.0871 4.91907 36.5258 6.04461C36.6689 6.41661 36.7643 6.80769 36.8978 7.27507C37.2984 7.27507 37.7563 7.27507 38.2141 7.27507C39.1966 7.27507 40.1886 7.26553 41.1711 7.27507C42.7258 7.28461 43.8609 8.30522 43.8704 9.84092C43.9086 14.1523 43.8991 18.4637 43.8704 22.7751C43.8609 24.1963 42.9643 25.0548 41.3427 25.36C41.3427 26.4665 41.3427 27.5729 41.3427 28.7366C42.3061 28.7366 43.26 28.7461 44.2138 28.7366C46.2074 28.7175 48.2009 28.6794 50.1944 28.6698C52.5504 28.6603 54.2387 30.3772 54.172 32.7332C54.0766 36.1385 53.9431 39.5437 53.7904 42.9394C53.695 45.0665 52.2166 46.6308 50.2517 46.7929C48.2963 46.9551 46.5412 45.6578 46.1597 43.7025C46.0357 43.0825 46.0834 42.4338 46.0547 41.7089C45.8067 41.9188 45.5969 42.0905 45.3966 42.2717C42.7831 44.6658 40.1695 47.0695 37.5655 49.4637C35.7818 51.1043 33.8741 51.1615 31.976 49.6449C30.0397 48.0997 28.1034 46.564 26.1194 44.9901C24.9175 45.9821 23.7252 46.9646 22.5329 47.9471C20.6061 49.54 18.6889 51.1425 16.7526 52.7163C15.5221 53.7178 14.1486 53.9563 12.6797 53.3268C11.268 52.7068 10.4858 51.5812 10.3714 50.0455C10.276 48.7101 10.8006 47.6132 11.8307 46.7643C14.5778 44.4846 17.3154 42.2049 20.0529 39.9252C20.1864 39.8394 20.2914 39.744 20.5489 39.5246ZM14.1963 18.8738C13.748 18.8738 13.3664 18.8834 12.9849 18.8738C12.2123 18.8452 11.659 18.3015 11.659 17.5861C11.659 16.8708 12.2027 16.3366 12.9849 16.3175C13.6907 16.2985 14.3966 16.308 15.1024 16.308C20.3772 16.308 25.652 16.308 30.9363 16.3175C31.728 16.3175 32.2717 16.8517 32.2907 17.5671C32.3003 18.3015 31.7375 18.8548 30.9267 18.8738C30.5357 18.8834 30.1351 18.8738 29.744 18.8738C29.744 20.2092 29.744 21.4492 29.744 22.6988C33.6166 22.6988 37.451 22.6988 41.276 22.6988C41.276 18.4065 41.276 14.1618 41.276 9.88861C28.3895 9.88861 15.5317 9.88861 2.68336 9.88861C2.68336 14.2 2.68336 18.4541 2.68336 22.7083C6.55597 22.7083 10.3714 22.7083 14.2344 22.7083C14.2344 21.6114 14.2344 20.5431 14.2344 19.4748C14.2249 19.3031 14.2058 19.1218 14.1963 18.8738ZM38.6624 36.9206C38.7197 36.8729 38.7769 36.8157 38.8246 36.768C38.6911 36.52 38.6243 36.1385 38.424 36.0335C35.7818 34.6314 35.715 30.7301 38.424 29.2517C38.5575 29.1849 38.7101 28.9941 38.7101 28.8606C38.7292 27.716 38.7197 26.5714 38.7197 25.3981C35.696 25.3981 32.7295 25.3981 29.6867 25.3981C29.6867 25.7511 29.6677 26.0754 29.6867 26.3901C29.7249 26.9911 29.4769 27.4203 29.019 27.7923C26.9874 29.4043 24.9652 31.0354 22.9335 32.6569C22.2277 33.2197 21.6935 33.2101 20.9781 32.6378C19.204 31.2166 17.4584 29.7477 15.6366 28.3932C14.6541 27.6588 14.0055 26.8671 14.2058 25.5794C14.2154 25.5317 14.1677 25.4745 14.139 25.3981C11.1821 25.3981 8.23474 25.3981 5.2492 25.3981C5.2492 29.2421 5.2492 33.0575 5.2492 36.9015C5.40182 36.9111 5.51628 36.9301 5.64028 36.9301C11.516 36.9301 17.4012 36.9301 23.2769 36.9206C23.5344 36.9206 23.8206 36.8061 24.059 36.6821C25.3658 35.9763 26.6631 35.9763 27.9794 36.6631C28.2655 36.8157 28.6184 36.9206 28.9332 36.9206C31.728 36.9397 34.5323 36.9301 37.327 36.9301C37.7849 36.9206 38.2237 36.9206 38.6624 36.9206ZM51.4249 37.7314H51.4154C51.4726 36.1385 51.5298 34.5455 51.5966 32.9621C51.6538 31.7412 51.1578 31.2261 49.9178 31.2452C46.856 31.2834 43.7941 31.3215 40.7323 31.3597C40.4366 31.3597 40.1218 31.3883 39.8357 31.4646C39.311 31.5981 38.9486 32.1705 38.9772 32.7141C39.0154 33.296 39.4541 33.8015 40.0169 33.8778C40.2935 33.916 40.5797 33.916 40.8563 33.916C41.7624 33.916 42.6686 33.8969 43.5747 33.8969C44.1566 33.8969 44.5954 34.1545 44.8052 34.6981C45.0151 35.2323 44.9101 35.7283 44.4904 36.1385C44.3283 36.2911 44.1661 36.4437 44.004 36.5868C41.2474 39.124 38.4812 41.6517 35.7246 44.1889C34.8661 44.9806 34.3701 44.9997 33.4544 44.2748C31.2797 42.5483 29.1049 40.8218 26.9301 39.0858C26.3101 38.5803 25.7569 38.5898 25.1369 39.0954C22.0369 41.6612 18.9369 44.2366 15.8369 46.8025C15.0166 47.4797 14.1867 48.1569 13.3855 48.8628C12.9181 49.2729 12.8418 49.8929 13.1089 50.408C13.3855 50.9231 13.9674 51.1997 14.5397 51.028C14.8163 50.9422 15.0834 50.7609 15.3123 50.5701C18.5458 47.9089 21.7794 45.2381 25.0034 42.5674C25.8427 41.8711 26.3292 41.8615 27.1877 42.5483C29.2861 44.208 31.3846 45.8772 33.4735 47.5465C34.5323 48.3858 34.9424 48.3763 35.9249 47.4701C39.4255 44.2557 42.9261 41.0412 46.4267 37.8172C46.9132 37.3689 47.4187 37.1114 48.0578 37.4166C48.6969 37.7218 48.8209 38.2846 48.7827 38.9332C48.716 40.2018 48.6683 41.4705 48.6397 42.7391C48.6206 43.5975 49.1452 44.1985 49.8892 44.2175C50.6141 44.2366 51.1483 43.6834 51.1864 42.844C51.2914 41.1557 51.3581 39.4388 51.4249 37.7314ZM16.8194 18.8929C16.8194 19.1695 16.8194 19.3794 16.8194 19.5988C16.8194 21.2871 16.8766 22.9849 16.8003 24.6637C16.7621 25.6175 17.0101 26.2471 17.8114 26.8194C19.2421 27.8495 20.5871 29.0037 21.9701 30.1101C23.6298 28.7843 25.2514 27.4966 26.8538 26.1803C27.016 26.0468 27.1114 25.7415 27.1114 25.5126C27.1304 23.5 27.1209 21.4874 27.1209 19.4748C27.1209 19.284 27.1018 19.0837 27.0923 18.8834C23.668 18.8929 20.2914 18.8929 16.8194 18.8929ZM9.70366 7.23692C17.9067 7.23692 26.0335 7.23692 34.2271 7.23692C33.7692 6.08276 33.3114 4.99538 32.9012 3.88892C32.7581 3.50738 32.5578 3.39292 32.1477 3.39292C29.6104 3.41199 27.0732 3.40245 24.536 3.40245C20.2818 3.40245 16.0372 3.40245 11.783 3.41199C11.5541 3.41199 11.2012 3.54553 11.1249 3.71722C10.6384 4.8523 10.1901 6.02553 9.70366 7.23692ZM31.6803 39.5437C32.7104 40.364 33.5975 41.0698 34.5132 41.8043C35.324 41.0603 36.0966 40.3449 36.9646 39.5437C35.1523 39.5437 33.5117 39.5437 31.6803 39.5437Z" fill="#ffffff"/>
</svg>