<svg width="51" height="50" viewBox="0 0 51 50" fill="none" xmlns="http://www.w3.org/2000/svg">
<path d="M4.60691 4.1395C4.60691 3.68524 4.60051 3.26938 4.60691 2.85991C4.6453 1.26042 5.93768 2.4999e-05 7.52438 2.4999e-05C9.11107 2.4999e-05 10.3971 1.26043 10.4354 2.86631C10.4482 3.28218 10.4354 3.69165 10.4354 4.1331C12.0989 4.1331 13.724 4.1331 15.4386 4.1331C15.4386 3.8452 15.4514 3.54449 15.4386 3.24379C15.3171 1.23483 16.8526 0.00642295 18.3433 2.4999e-05C19.8468 -0.00637295 21.4015 1.21564 21.28 3.26938C21.2608 3.54449 21.28 3.8196 21.28 4.1331C22.9434 4.1331 24.5813 4.1331 26.2832 4.1331C26.2832 3.71724 26.2768 3.30776 26.2832 2.8983C26.3151 1.26682 27.6075 -0.0063667 29.2198 0.0064292C30.8065 0.0128271 32.0733 1.27962 32.1117 2.8919C32.1181 3.30137 32.1117 3.71724 32.1117 4.1331C32.5212 4.17149 32.8858 4.18428 33.2377 4.24826C35.2915 4.61934 36.6862 6.28282 36.6926 8.39414C36.7054 12.0538 36.699 15.7198 36.699 19.3794C36.699 19.5649 36.699 19.7505 36.699 20.0384C36.9038 19.8529 37.0445 19.7313 37.1725 19.6033C38.6824 18.0934 40.1923 16.5835 41.7022 15.0736C42.6555 14.1203 43.2121 14.0499 44.4213 14.7537C44.946 14.2227 45.4706 13.6725 46.008 13.135C47.0957 12.0538 48.6824 12.0218 49.6869 13.0391C50.6721 14.0371 50.6082 15.579 49.5397 16.6731C49.0087 17.2105 48.4585 17.7415 47.7995 18.3877C48.049 18.5669 48.2665 18.6884 48.4328 18.8612C50.1155 20.5886 50.1475 23.0454 48.4776 24.7921C47.2428 26.0845 45.9569 27.3257 44.6901 28.5925C43.4617 29.8209 42.2396 31.0493 41.0048 32.2713C40.8257 32.444 40.5826 32.6552 40.3586 32.6552C40.1027 32.6615 39.7381 32.5272 39.6101 32.3353C39.4693 32.1241 39.4821 31.7594 39.5333 31.4779C39.5653 31.3052 39.7764 31.1516 39.9236 31.0045C42.342 28.5861 44.7604 26.1676 47.1725 23.7492C48.0554 22.8663 48.2601 21.8426 47.7547 20.8445C47.6203 20.9661 47.4924 21.0749 47.3772 21.19C43.9287 24.6385 40.4738 28.0806 37.0381 31.5419C36.8462 31.7339 36.7118 32.0729 36.7118 32.3481C36.6926 36.7371 36.699 41.1324 36.699 45.5214C36.699 48.2598 34.9524 50 32.2013 50C22.969 50 13.7304 50 4.49815 50C1.78542 50 0.0323733 48.247 0.0323733 45.547C0.0323733 33.3781 0.0771668 21.2156 0.0003914 9.04672C-0.0315983 6.02049 1.90058 4.05633 4.60691 4.1395ZM35.0228 15.8669C23.8775 15.8669 12.7963 15.8669 1.68945 15.8669C1.68945 16.0717 1.68945 16.2444 1.68945 16.4172C1.68945 26.1165 1.68945 35.8221 1.68945 45.5214C1.68945 47.3257 2.68753 48.3237 4.48535 48.3237C13.7368 48.3237 22.9882 48.3237 32.2397 48.3237C34.0119 48.3237 35.0228 47.3193 35.0228 45.5534C35.0228 41.7338 35.0228 37.9207 35.0228 34.1011C35.0228 33.9539 35.0228 33.8004 35.0228 33.5509C34.8244 33.73 34.6965 33.8388 34.5813 33.9539C32.6171 35.9181 30.6594 37.8887 28.6824 39.8336C28.4265 40.0896 28.0682 40.2943 27.7227 40.3967C26.2256 40.8381 24.7221 41.2412 23.2121 41.6443C21.6574 42.0601 20.5826 40.9853 21.0048 39.437C21.4015 37.9655 21.7854 36.4875 22.2269 35.0288C22.3484 34.6193 22.5851 34.1971 22.8858 33.89C26.795 29.9488 30.7297 26.0269 34.6517 22.0922C34.8116 21.9322 35.0036 21.7083 35.01 21.5099C35.0356 19.6481 35.0228 17.7735 35.0228 15.8669ZM1.69584 14.1267C12.8347 14.1267 23.9159 14.1267 35.0164 14.1267C35.0164 12.1113 35.0547 10.1344 35.0036 8.15741C34.9652 6.68588 33.5192 5.59184 32.1309 5.90534C31.9645 7.94628 30.9345 9.1235 29.2774 9.16189C27.55 9.20668 26.5391 8.11902 26.2192 5.86055C24.5813 5.86055 22.9434 5.86055 21.312 5.86055C21.088 7.94628 20.1603 9.05313 18.5608 9.1555C17.8571 9.20028 17.2173 9.02114 16.6478 8.60527C15.7137 7.92709 15.3875 6.9546 15.413 5.85415C13.7304 5.85415 12.1053 5.85415 10.4802 5.85415C10.1795 8.03585 9.25182 9.10431 7.63314 9.1555C6.91017 9.18109 6.26398 8.96996 5.70096 8.5157C4.85003 7.83752 4.55573 6.90341 4.58772 5.86055C3.02662 5.7134 1.74063 6.71148 1.70224 8.15102C1.65745 10.1344 1.69584 12.1113 1.69584 14.1267ZM34.4789 24.7857C35.605 25.9181 36.763 27.0825 37.8378 28.1638C40.7361 25.2655 43.6664 22.3417 46.5519 19.4626C45.445 18.3557 44.2998 17.2041 43.1865 16.0909C40.2947 18.9763 37.3708 21.8938 34.4789 24.7857ZM27.7995 38.183C29.9364 36.0461 32.0733 33.9092 34.1974 31.785C33.097 30.6846 31.9453 29.533 30.8641 28.4517C28.7272 30.5886 26.5775 32.7383 24.4533 34.856C25.5602 35.9565 26.7118 37.1081 27.7995 38.183ZM6.27037 4.58096C6.27037 5.11839 6.25758 5.65582 6.27037 6.19324C6.28957 6.9546 6.827 7.50482 7.53077 7.49842C8.21535 7.49202 8.75278 6.96099 8.75918 6.21883C8.77837 5.13118 8.77837 4.03713 8.75918 2.94948C8.74638 2.21372 8.21535 1.68269 7.52438 1.67629C6.8206 1.6699 6.28317 2.21372 6.26398 2.98147C6.26398 3.5061 6.27037 4.04353 6.27037 4.58096ZM19.6037 4.56816C19.6037 4.03073 19.6165 3.49331 19.6037 2.95588C19.5845 2.19453 19.0407 1.6507 18.3305 1.6635C17.6459 1.67629 17.1213 2.21372 17.1085 2.94948C17.0957 4.02434 17.0957 5.09919 17.1085 6.16765C17.1149 6.9354 17.6523 7.48563 18.3561 7.48563C19.0599 7.48563 19.5845 6.9418 19.6037 6.16765C19.6165 5.64302 19.6037 5.10559 19.6037 4.56816ZM27.9402 4.58096C27.9402 5.11839 27.9274 5.65582 27.9402 6.19324C27.9594 6.9546 28.4969 7.50482 29.2006 7.49842C29.8852 7.49202 30.4226 6.96099 30.429 6.21883C30.4482 5.13118 30.4482 4.03713 30.429 2.94948C30.4162 2.21372 29.8852 1.68269 29.1942 1.67629C28.4904 1.6699 27.953 2.21372 27.9338 2.98147C27.9274 3.5061 27.9402 4.04353 27.9402 4.58096ZM36.5647 29.5585C35.4002 28.3941 34.2422 27.2361 33.1162 26.1037C32.7899 26.4364 32.4252 26.8138 32.1245 27.1273C33.2569 28.2598 34.4149 29.4114 35.5794 30.5758C35.8993 30.2495 36.2576 29.8784 36.5647 29.5585ZM23.532 36.5003C23.2121 37.6712 22.8923 38.842 22.5532 40.1024C23.82 39.7569 24.9844 39.437 26.1488 39.1171C25.2723 38.2278 24.4278 37.3896 23.532 36.5003ZM46.7374 17.1401C47.262 16.6027 47.7547 16.0973 48.2473 15.5854C48.3177 15.5087 48.3945 15.4383 48.4649 15.3615C48.7784 14.9904 48.7784 14.5042 48.4649 14.1907C48.1514 13.8836 47.6779 13.8388 47.3388 14.1587C46.7246 14.7345 46.1488 15.3551 45.5666 15.9501C45.9441 16.334 46.3087 16.7051 46.7374 17.1401Z" fill="white"/>
<path d="M21.6894 20.8254C25.1635 20.8254 28.6312 20.8254 32.1053 20.8254C32.278 20.8254 32.4572 20.8062 32.6235 20.8382C33.0714 20.9213 33.3465 21.1965 33.3465 21.6571C33.3465 22.1178 33.0714 22.3929 32.6235 22.4761C32.4572 22.5081 32.278 22.4889 32.1053 22.4889C25.1635 22.4889 18.2153 22.4889 11.2736 22.4889C11.2224 22.4889 11.1712 22.4889 11.12 22.4889C10.4162 22.4825 10.0323 22.1881 10.0323 21.6571C10.0323 21.1261 10.4162 20.8254 11.12 20.8254C14.6389 20.8254 18.1641 20.8254 21.6894 20.8254Z" fill="white"/>
<path d="M16.6542 32.4952C14.7988 32.4952 12.937 32.4952 11.0816 32.4952C10.4162 32.4952 10.0387 32.1945 10.0259 31.6762C10.0131 31.1388 10.4034 30.8317 11.1008 30.8253C14.8308 30.8253 18.5672 30.8253 22.2972 30.8253C22.9626 30.8253 23.3401 31.126 23.3529 31.6443C23.3657 32.1753 22.969 32.4952 22.278 32.4952C20.4034 32.4952 18.5288 32.4952 16.6542 32.4952Z" fill="white"/>
<path d="M8.34973 21.6507C8.34973 23.039 7.2173 24.1651 5.83534 24.1587C4.47897 24.1523 3.35933 23.0262 3.35293 21.6699C3.34653 20.2879 4.47898 19.1619 5.86733 19.1619C7.23009 19.1619 8.35613 20.2943 8.34973 21.6507ZM6.68627 21.6443C6.67987 21.1964 6.29599 20.8317 5.84814 20.8317C5.40028 20.8317 5.0292 21.2092 5.0228 21.6571C5.0164 22.1241 5.41947 22.5144 5.88012 22.4952C6.33437 22.4696 6.69267 22.0857 6.68627 21.6443Z" fill="white"/>
<path d="M5.85456 29.1618C7.21092 29.1554 8.34336 30.2814 8.34975 31.6314C8.35615 33.0197 7.23012 34.1522 5.85456 34.1522C4.49179 34.1522 3.37216 33.0389 3.35936 31.6826C3.34657 30.3006 4.4662 29.1682 5.85456 29.1618ZM6.68629 31.6762C6.69909 31.2283 6.33441 30.8444 5.88655 30.8316C5.44509 30.8125 5.04841 31.1707 5.02922 31.6186C5.00362 32.0856 5.38751 32.4887 5.85456 32.4887C6.29602 32.4887 6.6735 32.124 6.68629 31.6762Z" fill="white"/>
<path d="M5.86725 44.1522C4.50448 44.1586 3.37845 43.0454 3.35925 41.689C3.34006 40.3071 4.4597 39.1682 5.84805 39.1554C7.20442 39.1426 8.34325 40.2623 8.35605 41.6123C8.36245 43.0134 7.24281 44.1522 5.86725 44.1522ZM6.68618 41.6634C6.69258 41.2156 6.32789 40.8381 5.88004 40.8253C5.43218 40.8125 5.0483 41.1772 5.02911 41.6187C5.00991 42.0857 5.39379 42.4888 5.86084 42.4824C6.3023 42.4824 6.67979 42.1113 6.68618 41.6634Z" fill="white"/>
<path d="M13.3593 40.8253C14.1399 40.8253 14.9204 40.8189 15.701 40.8253C16.3088 40.8317 16.6863 41.158 16.6799 41.6635C16.6799 42.1689 16.3024 42.4888 15.6882 42.4888C14.1271 42.4952 12.566 42.4952 10.9985 42.4888C10.3843 42.4888 10.0132 42.1625 10.0196 41.6506C10.0196 41.1452 10.3907 40.8317 11.0113 40.8253C11.7982 40.8189 12.5788 40.8253 13.3593 40.8253Z" fill="white"/>
<path d="M20.0196 41.6699C20.0132 42.1178 19.6229 42.4952 19.175 42.4824C18.7208 42.476 18.3497 42.0922 18.3625 41.6379C18.3689 41.1836 18.7528 40.8126 19.207 40.8254C19.6549 40.8382 20.026 41.222 20.0196 41.6699Z" fill="white"/>
</svg>
